<svg xmlns="http://www.w3.org/2000/svg" width="256" height="256" viewBox="0 0 256 256">
  <defs>
    <linearGradient id="g" x1="0" y1="0" x2="0" y2="1">
      <stop offset="0%" stop-color="#1e88e5"/>
      <stop offset="100%" stop-color="#0d47a1"/>
    </linearGradient>
  </defs>
  <circle cx="128" cy="128" r="124" fill="url(#g)" stroke="#d0dde9" stroke-width="4"/>
  <g transform="translate(0,8)">
    <path d="M128 60c-22 0-40 18-40 40 0 16 10 23 22 12 8-7 12-18 18-18s10 11 18 18c12 11 22 4 22-12 0-22-18-40-40-40z" fill="#4caf50"/>
    <path d="M128 60c-10 12-18 28-18 44 0 3 2 6 6 6 7 0 9-8 12-14 3-7 7-14 10-20 3 6 7 13 10 20 3 6 5 14 12 14 4 0 6-3 6-6 0-16-8-32-18-44z" fill="#2e7d32" opacity="0.9"/>
  </g>
  <text x="128" y="188" font-family="Segoe UI, Roboto, Arial" font-size="34" fill="#ffffff" text-anchor="middle">Sana Stayz</text>
</svg>
